<?xml version="1.0" encoding="UTF-8"?>
<svg id="Layer_1" data-name="Layer 1" xmlns="http://www.w3.org/2000/svg" viewBox="0 0 3071.2 3199.74">
  <defs>
    <style>
      .cls-1 {
        fill: #55d69a;
      }
    </style>
  </defs>
  <path class="cls-1" d="M1483.32,3081.64v-416.24c-299.64-22.89-564.6-128.62-788.5-330.08-226.57-203.86-348.48-460.3-377.13-766.23-10.18,0-20.22,0-30.27,0-76.74.05-153.48.55-230.21-.07-28.13-.23-50.02-18.73-55.86-43.9-5.43-23.44,5.77-51.3,27.95-59.29,16.46-5.93,35.11-7.65,52.83-7.91,66.3-.96,132.63-.56,198.94-.66,11.09-.02,22.17,0,32.08,0,3.95-67.46,5.17-131.74,11.97-195.43,13.01-121.87,42.9-239.96,88.38-353.95,10.09-25.28,28.5-44.06,55.11-40.43,17.04,2.32,38.75,16.16,46.1,30.94,7.41,14.9,2.93,38.24-2.01,56.33-19.14,70.08-43.95,138.75-60.25,209.42-21.47,93.02-30.91,187.92-26.65,279.37,120.01,8.17,238.16,11.44,355.02,25.49,117.78,14.17,225.31,61.61,327.65,131.38,1.04-22.85,2.57-42.01,2.67-61.17.5-91.88.27-183.77,1.16-275.65.16-16.84-4.72-24.58-21.97-29.08-193.98-50.52-317.26-204.56-319.18-407.49-2.41-254.79.1-509.63.88-764.44.13-41.76,16.62-60.92,49.97-61.67,36.72-.83,56.71,19.26,57,61.8.72,107.99-.16,215.98.04,323.97.28,154.39-1.95,308.86,2.26,463.15,4.23,154.87,145.4,285.59,299.76,281.89,27.69-.66,55.38-10.11,82.66-17.11,29.02-7.46,54.43,1.93,66.55,26.79,12.13,24.89,4.16,51.93-22.33,68.32-13.5,8.35-28.76,14.32-43.88,19.44-14.11,4.78-29.09,7-46.14,10.91,0,145.55-.47,290.33.77,435.09.12,13.53,8.15,29.33,17.22,40.1,142.84,169.39,191.32,366.59,168.27,582.8-7.76,72.77-27.89,144.23-42.39,216.28-1.27,6.32-2.79,12.58-5.27,23.67,42.54,4.32,83.22,8.44,127.69,12.95,0-17.96,0-31.87,0-45.79-.03-806.15-.06-1612.31-.06-2418.46,0-12.31-.41-24.68.52-36.93C1487,18.89,1506.41.23,1535.52,0c31.33-.25,53.88,20.45,56.02,51.63.39,5.66.06,11.36.06,17.05.04,817.52.08,1635.04.11,2452.56,0,9.32,0,18.63,0,30.92,50.17-3.07,97.82-5.99,147.05-9,.94-8.06,2.3-14.3,2.3-20.54-.15-528.58-3.8-1057.2.93-1585.74,2.05-229.31,102.95-419.45,272.4-573.18,85.77-77.81,186.45-132.3,288.68-184.28,97.36-49.5,200.09-89.2,289.3-162.79,0,22.37.02,39.94,0,57.52-.17,150.62,4.4,301.43-1.49,451.82-13.6,347.28-176.44,599.1-494.15,746.06-45.33,20.97-93.08,37.31-140.78,52.39-49.52,15.66-76.74-4.04-85.1-55.98-12.54-77.95-.04-152.66,29.72-224.8,39.15-94.9,103.5-171.25,179.7-238.27,27.56-24.24,56.88-23.97,78.43-1.73,20.94,21.61,21.54,53.52-1.35,79.29-26.35,29.67-56.31,56.2-81.93,86.43-48.4,57.11-82.68,121.84-95.56,196.5-1.88,10.9-1.65,22.15-2.61,36.45,87.01-28.15,163.31-68.68,232.4-122.52,175.54-136.8,262.33-319.69,272.16-539.25,4.78-106.7.83-213.79.83-325.53-39.32,18.35-76.78,35.58-114.03,53.25-132.57,62.88-258.59,135.57-354.33,250.1-100.8,120.58-160.78,258.83-161.68,417.37-1.88,333.42-.63,666.86-.66,1000.3,0,35.88,0,71.77,0,102.38,209.02-283.05,463.87-511.21,825.1-598.55,2.42-107.42-8.35-216.25-36.43-322.95-14.91-56.64-33.42-112.32-49.72-168.61-10.62-36.67-1.3-62.66,25.73-75.35,30.58-14.36,62.05-2.84,75.29,33.23,18.21,49.6,33.61,100.41,47.12,151.52,31.31,118.46,50.15,238.76,46.7,361.83-.1,3.61.76,7.25,1.28,11.87,41.08,2.58,81.65,3,121.59,8.24,38.18,5.01,76.84,11.73,113.03,24.23,18.25,6.3,38.46,24.21,45.62,41.82,16.47,40.48-21.05,75.66-65.59,67.06-57.32-11.07-114.63-25.92-172.54-29.42-141.23-8.54-272.02,32.72-392.48,103.08-203.99,119.16-374.96,274.61-501.39,476.04-75.16,119.74-91.89,251.87-81.32,397.06,52.01-18.82,102.25-34.12,150.14-54.84,202.84-87.79,369.56-221.64,496.42-402.6,81.97-116.92,132.59-248.2,160.51-388.12,6.52-32.67,14.45-62.74,53.59-71.55,40.18-9.05,69.43,17.65,61.85,58.22-78.51,420.01-320.52,711.81-702.82,891.85-62.18,29.28-128.35,50.57-193.78,72.21-22.38,7.4-29.01,16.62-28.59,39.18,1.29,70.07.47,140.19.15,210.29-.71,154.99-101.02,282.62-249.63,317.89-166.02,39.41-342.79-76.74-366.4-246.07-9.6-68.87-6.2-139.68-6.8-209.62-.22-25.59,26.45-46.34,52.53-45.53,30.7.96,53.51,20.76,54.44,50.62,1.39,44.48-.85,89.1,1.13,133.54,4.24,94.98,46.01,166.13,135.75,204.94,2.39,1.03,5.28.88,10.91,1.73ZM1132.05,2472.05c19.78-71.37,27.54-141.73,21.5-212.5-12.21-142.92-70.31-262.12-191.5-344.79-48.71-33.23-102.08-52.58-163.03-44.51-63.85,8.46-84.68,54.92-46.78,107.08,3.33,4.59,6.97,8.98,10.77,13.19,56.65,62.7,124.67,103.05,210.93,108.55,30.72,1.96,52.98,23.83,54.74,51.34,1.87,29.32-15.13,50.58-47.2,57.24-10.96,2.28-22.7,3.67-33.72,2.36-132.87-15.75-233.68-83.28-304.03-195.16-48.75-77.53-25.14-170.43,51.41-221.05,37.61-24.87,79.93-34.62,123.83-35.35,117.26-1.94,213.18,47.3,290.38,131.88,151.79,166.31,182.8,363.08,138.8,577.19-2.51,12.23-5.18,24.43-8.56,40.36,6.41-3.9,8.9-4.52,9.27-5.77,42.97-142.76,66.27-287.09,35.9-435.98-32.7-160.33-112.96-289.08-250.01-380.95-185.34-124.24-393.17-133-605.6-118.98,34.72,465.65,363.72,778,702.9,905.83ZM1593.06,2666.42v417.43c62.61-23.42,108.48-61.14,130.28-123.01,35.04-99.42,8.4-202.21,19.04-305.94-52.58,4.06-100.23,7.73-149.32,11.52Z"/>
  <path class="cls-1" d="M1238.92,492.7c0-97.51-.08-195.03.05-292.54.04-28.25,14.25-45.64,41.4-53.55,23.62-6.88,41.55,2.91,54.1,20.61,7.11,10.03,11.18,24.46,11.22,36.92.56,195.03.53,390.07-.16,585.1-.14,38.4-20.77,59.42-53.76,59.54-35.45.12-54.45-19.26-54.82-60.71-.87-98.45-.28-196.92-.28-295.37.75,0,1.5,0,2.24,0Z"/>
  <path class="cls-1" d="M1114.1,498.37c0,96.47.12,192.93-.06,289.39-.07,39.79-19.77,62.09-53.66,61.73-33.17-.35-53.22-21.81-53.2-59.91.12-191.98.62-383.96,1.51-575.93.06-13.84.99-29.42,7.26-41.12,11.68-21.77,31.98-30.86,57.33-25.1,26.77,6.08,40.52,22.99,40.58,50.19.22,100.25.09,200.49.09,300.74.04,0,.09,0,.13,0Z"/>
  <path class="cls-1" d="M2145.48,2207.76c-56.17,1.05-83.92-27.61-70.17-70.49,8.19-25.56,28.29-36.62,53.79-38.84,75.53-6.6,138.19-40.38,186.13-97.07,23.73-28.06,39.15-63.62,55.75-97.07,9.85-19.85,16.69-39.67,41.34-46.33,33.23-8.98,68.59,11,66,44.73-2.51,32.78-10.57,67.85-26.22,96.44-58.38,106.7-150.04,172.57-267.32,203.31-5.47,1.43-10.99,2.86-16.58,3.54-8.45,1.02-16.97,1.37-22.72,1.81Z"/>
  <path class="cls-1" d="M528.36,677.91c1.22-37.07,25.21-59.62,61.55-57.85,32.16,1.57,54.62,26.5,54.11,60.09-.5,33.35-28.33,59.28-62.96,58.66-30.9-.55-53.82-27.03-52.7-60.89Z"/>
  <path class="cls-1" d="M2186.88,1407.74c-.16-33.3,23.55-58.36,55.84-58.99,32.7-.64,59.27,26.07,59.04,59.37-.22,33.14-26.3,59-59.68,59.19-30.77.17-55.04-26.02-55.2-59.56Z"/>
  <path class="cls-1" d="M738.89,1218.66c.4,31.66-25.86,59.12-56.57,59.18-34.59.06-57.42-21.95-58.25-56.17-.85-34.87,23-60.18,57.1-60.58,31.9-.38,57.32,24.97,57.72,57.58Z"/>
</svg>